<svg width="46" height="53" viewBox="0 0 46 53" fill="none" xmlns="http://www.w3.org/2000/svg">
<path d="M19.3296 8.60701C21.3072 7.53158 23.4989 6.84361 25.7797 6.58239C28.0604 6.32117 30.3854 6.4918 32.6221 7.08455C34.8587 7.6773 36.9631 8.68055 38.8151 10.037C40.6671 11.3935 42.2304 13.0767 43.4159 14.9904C44.6013 16.9041 45.3856 19.0108 45.724 21.1904C46.0624 23.37 45.9483 25.5797 45.3881 27.6933C44.8279 29.807 43.8327 31.7831 42.4593 33.5091C41.0859 35.235 39.3611 36.6768 37.3835 37.7522L10.7243 52.2495C10.4273 52.411 10.0981 52.5143 9.75546 52.5536C9.41287 52.5928 9.06362 52.5672 8.72765 52.4781C8.39168 52.3891 8.07558 52.2384 7.79738 52.0346C7.51919 51.8309 7.28436 51.5781 7.10629 51.2906C6.92822 51.0031 6.81041 50.6867 6.75958 50.3593C6.70874 50.0319 6.72589 49.6999 6.81003 49.3825C6.89418 49.065 7.04367 48.7681 7.24997 48.5089C7.45628 48.2496 7.71536 48.033 8.01242 47.8715L34.6728 33.3798C37.4643 31.9075 39.5032 29.4309 40.3481 26.4864C41.193 23.5418 40.7758 20.3663 39.1869 17.6475C37.598 14.9287 34.9652 12.8853 31.8588 11.96C28.7523 11.0346 25.4222 11.3018 22.5895 12.7035L22.0383 12.9867L10.402 19.298L22.1281 22.4056C22.7547 22.5718 23.3018 22.9498 23.6656 23.4676C24.0293 23.9854 24.1842 24.6071 24.101 25.2146L24.044 25.502C23.8871 26.0938 23.5058 26.6041 22.9724 26.9361C22.439 27.2681 21.7907 27.3987 21.1503 27.3031L20.8473 27.2383L2.79606 22.4517L2.55956 22.3632L2.28855 22.2293L1.98369 22.027L1.79964 21.8748L1.57982 21.651C1.48655 21.5431 1.40256 21.4283 1.32872 21.3077L1.16072 20.9917L1.04451 20.6661L0.986449 20.4102L0.956527 20.1307L0.952757 19.9797L0.963717 19.7732L0.985522 19.6186L1.03165 19.4033L5.51301 2.49376C5.67754 1.87846 6.08442 1.35275 6.65057 1.024C7.21672 0.69525 7.89944 0.588247 8.55932 0.724841C9.21919 0.861434 9.80645 1.23132 10.2012 1.75898C10.5959 2.28663 10.7683 2.93225 10.6833 3.564L10.6269 3.84904L7.69138 14.9255L19.3296 8.60701Z" fill="#ED9E1D"/>
</svg>
