<svg width="36" height="50" viewBox="0 0 36 50" fill="none" xmlns="http://www.w3.org/2000/svg">
<path fill-rule="evenodd" clip-rule="evenodd" d="M2.25 45H33.75C34.3467 45 34.919 45.2634 35.341 45.7322C35.7629 46.2011 36 46.837 36 47.5C36 48.163 35.7629 48.7989 35.341 49.2678C34.919 49.7366 34.3467 50 33.75 50H2.25C1.65326 50 1.08097 49.7366 0.65901 49.2678C0.237053 48.7989 0 48.163 0 47.5C0 46.837 0.237053 46.2011 0.65901 45.7322C1.08097 45.2634 1.65326 45 2.25 45ZM0 32.5L22.5 7.5L29.25 15L6.75 40H0V32.5ZM24.75 5L29.25 0L36 7.5L31.4978 12.5025L24.75 5Z" fill="#ED9E1D"/>
</svg>
