<svg width="108" height="29" viewBox="0 0 108 29" fill="none" xmlns="http://www.w3.org/2000/svg">
<rect x="57" width="51" height="29" rx="3" fill="#ED9E1D"/>
<path d="M2.92969 5.9375H5.55469L10.4883 19.0977L15.4102 5.9375H18.0352L11.5195 23H9.43359L2.92969 5.9375ZM1.73438 5.9375H4.23047L4.66406 17.3281V23H1.73438V5.9375ZM16.7344 5.9375H19.2422V23H16.3008V17.3281L16.7344 5.9375ZM28.043 23.2344C27.1055 23.2344 26.2578 23.082 25.5 22.7773C24.75 22.4648 24.1094 22.0312 23.5781 21.4766C23.0547 20.9219 22.6523 20.2695 22.3711 19.5195C22.0898 18.7695 21.9492 17.9609 21.9492 17.0938V16.625C21.9492 15.6328 22.0938 14.7344 22.3828 13.9297C22.6719 13.125 23.0742 12.4375 23.5898 11.8672C24.1055 11.2891 24.7148 10.8477 25.418 10.543C26.1211 10.2383 26.8828 10.0859 27.7031 10.0859C28.6094 10.0859 29.4023 10.2383 30.082 10.543C30.7617 10.8477 31.3242 11.2773 31.7695 11.832C32.2227 12.3789 32.5586 13.0312 32.7773 13.7891C33.0039 14.5469 33.1172 15.3828 33.1172 16.2969V17.5039H23.3203V15.4766H30.3281V15.2539C30.3125 14.7461 30.2109 14.2695 30.0234 13.8242C29.8438 13.3789 29.5664 13.0195 29.1914 12.7461C28.8164 12.4727 28.3164 12.3359 27.6914 12.3359C27.2227 12.3359 26.8047 12.4375 26.4375 12.6406C26.0781 12.8359 25.7773 13.1211 25.5352 13.4961C25.293 13.8711 25.1055 14.3242 24.9727 14.8555C24.8477 15.3789 24.7852 15.9688 24.7852 16.625V17.0938C24.7852 17.6484 24.8594 18.1641 25.0078 18.6406C25.1641 19.1094 25.3906 19.5195 25.6875 19.8711C25.9844 20.2227 26.3438 20.5 26.7656 20.7031C27.1875 20.8984 27.668 20.9961 28.207 20.9961C28.8867 20.9961 29.4922 20.8594 30.0234 20.5859C30.5547 20.3125 31.0156 19.9258 31.4062 19.4258L32.8945 20.8672C32.6211 21.2656 32.2656 21.6484 31.8281 22.0156C31.3906 22.375 30.8555 22.668 30.2227 22.8945C29.5977 23.1211 28.8711 23.2344 28.043 23.2344ZM38.1445 12.8984V23H35.3203V10.3203H37.9805L38.1445 12.8984ZM37.6875 16.1914L36.7266 16.1797C36.7266 15.3047 36.8359 14.4961 37.0547 13.7539C37.2734 13.0117 37.5938 12.3672 38.0156 11.8203C38.4375 11.2656 38.9609 10.8398 39.5859 10.543C40.2188 10.2383 40.9492 10.0859 41.7773 10.0859C42.3555 10.0859 42.8828 10.1719 43.3594 10.3438C43.8438 10.5078 44.2617 10.7695 44.6133 11.1289C44.9727 11.4883 45.2461 11.9492 45.4336 12.5117C45.6289 13.0742 45.7266 13.7539 45.7266 14.5508V23H42.9023V14.7969C42.9023 14.1797 42.8086 13.6953 42.6211 13.3438C42.4414 12.9922 42.1797 12.7422 41.8359 12.5938C41.5 12.4375 41.0977 12.3594 40.6289 12.3594C40.0977 12.3594 39.6445 12.4609 39.2695 12.6641C38.9023 12.8672 38.6016 13.1445 38.3672 13.4961C38.1328 13.8477 37.9609 14.2539 37.8516 14.7148C37.7422 15.1758 37.6875 15.668 37.6875 16.1914ZM45.5508 15.4414L44.2266 15.7344C44.2266 14.9688 44.332 14.2461 44.543 13.5664C44.7617 12.8789 45.0781 12.2773 45.4922 11.7617C45.9141 11.2383 46.4336 10.8281 47.0508 10.5312C47.668 10.2344 48.375 10.0859 49.1719 10.0859C49.8203 10.0859 50.3984 10.1758 50.9062 10.3555C51.4219 10.5273 51.8594 10.8008 52.2188 11.1758C52.5781 11.5508 52.8516 12.0391 53.0391 12.6406C53.2266 13.2344 53.3203 13.9531 53.3203 14.7969V23H50.4844V14.7852C50.4844 14.1445 50.3906 13.6484 50.2031 13.2969C50.0234 12.9453 49.7656 12.7031 49.4297 12.5703C49.0938 12.4297 48.6914 12.3594 48.2227 12.3594C47.7852 12.3594 47.3984 12.4414 47.0625 12.6055C46.7344 12.7617 46.457 12.9844 46.2305 13.2734C46.0039 13.5547 45.832 13.8789 45.7148 14.2461C45.6055 14.6133 45.5508 15.0117 45.5508 15.4414Z" fill="white"/>
<path d="M73.7578 13.0625V15.3945H64.6992V13.0625H73.7578ZM65.4258 5.9375V23H62.4844V5.9375H65.4258ZM76.0195 5.9375V23H73.0898V5.9375H76.0195ZM86.8711 20.0117V10.3203H89.707V23H87.0352L86.8711 20.0117ZM87.2695 17.375L88.2188 17.3516C88.2188 18.2031 88.125 18.9883 87.9375 19.707C87.75 20.418 87.4609 21.0391 87.0703 21.5703C86.6797 22.0938 86.1797 22.5039 85.5703 22.8008C84.9609 23.0898 84.2305 23.2344 83.3789 23.2344C82.7617 23.2344 82.1953 23.1445 81.6797 22.9648C81.1641 22.7852 80.7188 22.5078 80.3438 22.1328C79.9766 21.7578 79.6914 21.2695 79.4883 20.668C79.2852 20.0664 79.1836 19.3477 79.1836 18.5117V10.3203H82.0078V18.5352C82.0078 18.9961 82.0625 19.3828 82.1719 19.6953C82.2812 20 82.4297 20.2461 82.6172 20.4336C82.8047 20.6211 83.0234 20.7539 83.2734 20.832C83.5234 20.9102 83.7891 20.9492 84.0703 20.9492C84.875 20.9492 85.5078 20.793 85.9688 20.4805C86.4375 20.1602 86.7695 19.7305 86.9648 19.1914C87.168 18.6523 87.2695 18.0469 87.2695 17.375ZM92.6133 5H95.4375V20.293L95.168 23H92.6133V5ZM103.711 16.543V16.7891C103.711 17.7266 103.605 18.5898 103.395 19.3789C103.191 20.1602 102.879 20.8398 102.457 21.418C102.043 21.9961 101.527 22.4453 100.91 22.7656C100.301 23.0781 99.5938 23.2344 98.7891 23.2344C98 23.2344 97.3125 23.0859 96.7266 22.7891C96.1406 22.4922 95.6484 22.0703 95.25 21.5234C94.8594 20.9766 94.543 20.3242 94.3008 19.5664C94.0586 18.8086 93.8867 17.9727 93.7852 17.0586V16.2734C93.8867 15.3516 94.0586 14.5156 94.3008 13.7656C94.543 13.0078 94.8594 12.3555 95.25 11.8086C95.6484 11.2539 96.1367 10.8281 96.7148 10.5312C97.3008 10.2344 97.9844 10.0859 98.7656 10.0859C99.5781 10.0859 100.293 10.2422 100.91 10.5547C101.535 10.8672 102.055 11.3125 102.469 11.8906C102.883 12.4609 103.191 13.1406 103.395 13.9297C103.605 14.7188 103.711 15.5898 103.711 16.543ZM100.887 16.7891V16.543C100.887 15.9727 100.84 15.4375 100.746 14.9375C100.652 14.4297 100.496 13.9844 100.277 13.6016C100.066 13.2188 99.7773 12.918 99.4102 12.6992C99.0508 12.4727 98.6016 12.3594 98.0625 12.3594C97.5625 12.3594 97.1328 12.4453 96.7734 12.6172C96.4141 12.7891 96.1133 13.0234 95.8711 13.3203C95.6289 13.6172 95.4375 13.9609 95.2969 14.3516C95.1641 14.7422 95.0742 15.1641 95.0273 15.6172V17.7383C95.0977 18.3242 95.2461 18.8633 95.4727 19.3555C95.707 19.8398 96.0352 20.2305 96.457 20.5273C96.8789 20.8164 97.4219 20.9609 98.0859 20.9609C98.6094 20.9609 99.0508 20.8555 99.4102 20.6445C99.7695 20.4336 100.055 20.1406 100.266 19.7656C100.484 19.3828 100.641 18.9375 100.734 18.4297C100.836 17.9219 100.887 17.375 100.887 16.7891Z" fill="black"/>
</svg>
