<svg width="69" height="66" viewBox="0 0 69 66" fill="none" xmlns="http://www.w3.org/2000/svg">
<path d="M59.5617 35.9153C60.3693 35.1418 60.8229 34.0934 60.8229 33.0003C60.8229 31.9071 60.3693 30.8587 59.5617 30.0853L43.3007 14.523C42.4917 13.7492 41.3944 13.3145 40.2503 13.3145C39.1062 13.3145 38.009 13.7492 37.2 14.523C36.3909 15.2969 35.9365 16.3464 35.9365 17.4408C35.9365 18.5351 36.3909 19.5847 37.2 20.3585L46.1009 28.8753L12.9379 28.8753C11.7941 28.8753 10.6972 29.3099 9.88847 30.0835C9.07972 30.857 8.62537 31.9063 8.62537 33.0003C8.62537 34.0943 9.07972 35.1435 9.88847 35.9171C10.6972 36.6907 11.7941 37.1253 12.9379 37.1253L46.1009 37.1253L37.2 45.6393C36.7994 46.0224 36.4816 46.4773 36.2648 46.9779C36.048 47.4786 35.9365 48.0151 35.9365 48.557C35.9365 49.0989 36.048 49.6355 36.2648 50.1361C36.4816 50.6367 36.7994 51.0916 37.2 51.4748C37.6005 51.8579 38.0761 52.1619 38.5995 52.3692C39.1229 52.5766 39.6838 52.6833 40.2503 52.6833C40.8168 52.6833 41.3778 52.5766 41.9012 52.3692C42.4246 52.1619 42.9001 51.8579 43.3007 51.4748L59.5617 35.9153Z" fill="#ED9E1D"/>
</svg>
