<svg width="50" height="50" viewBox="0 0 50 50" fill="none" xmlns="http://www.w3.org/2000/svg">
<path d="M0 2.34375C0 1.72215 0.24693 1.12601 0.686468 0.686468C1.12601 0.24693 1.72215 0 2.34375 0H33.5938C34.2154 0 34.8115 0.24693 35.251 0.686468C35.6906 1.12601 35.9375 1.72215 35.9375 2.34375V7.03125C35.9375 7.65285 35.6906 8.24899 35.251 8.68853C34.8115 9.12807 34.2154 9.375 33.5938 9.375C32.9721 9.375 32.376 9.12807 31.9365 8.68853C31.4969 8.24899 31.25 7.65285 31.25 7.03125V4.6875H20.3125V28.7688C19.2818 31.018 18.7488 33.4633 18.75 35.9375C18.75 38.75 19.425 41.4062 20.625 43.75H11.7188C11.0971 43.75 10.501 43.5031 10.0615 43.0635C9.62193 42.624 9.375 42.0278 9.375 41.4062C9.375 40.7846 9.62193 40.1885 10.0615 39.749C10.501 39.3094 11.0971 39.0625 11.7188 39.0625H15.625V4.6875H4.6875V7.03125C4.6875 7.65285 4.44057 8.24899 4.00103 8.68853C3.56149 9.12807 2.96535 9.375 2.34375 9.375C1.72215 9.375 1.12601 9.12807 0.686468 8.68853C0.24693 8.24899 0 7.65285 0 7.03125V2.34375ZM50 35.9375C50 39.6671 48.5184 43.244 45.8812 45.8812C43.244 48.5184 39.6671 50 35.9375 50C32.2079 50 28.631 48.5184 25.9938 45.8812C23.3566 43.244 21.875 39.6671 21.875 35.9375C21.875 32.2079 23.3566 28.631 25.9938 25.9938C28.631 23.3566 32.2079 21.875 35.9375 21.875C39.6671 21.875 43.244 23.3566 45.8812 25.9938C48.5184 28.631 50 32.2079 50 35.9375ZM37.5 29.6875C37.5 29.2731 37.3354 28.8757 37.0424 28.5826C36.7493 28.2896 36.3519 28.125 35.9375 28.125C35.5231 28.125 35.1257 28.2896 34.8326 28.5826C34.5396 28.8757 34.375 29.2731 34.375 29.6875V34.375H29.6875C29.2731 34.375 28.8757 34.5396 28.5826 34.8326C28.2896 35.1257 28.125 35.5231 28.125 35.9375C28.125 36.3519 28.2896 36.7493 28.5826 37.0424C28.8757 37.3354 29.2731 37.5 29.6875 37.5H34.375V42.1875C34.375 42.6019 34.5396 42.9993 34.8326 43.2924C35.1257 43.5854 35.5231 43.75 35.9375 43.75C36.3519 43.75 36.7493 43.5854 37.0424 43.2924C37.3354 42.9993 37.5 42.6019 37.5 42.1875V37.5H42.1875C42.6019 37.5 42.9993 37.3354 43.2924 37.0424C43.5854 36.7493 43.75 36.3519 43.75 35.9375C43.75 35.5231 43.5854 35.1257 43.2924 34.8326C42.9993 34.5396 42.6019 34.375 42.1875 34.375H37.5V29.6875Z" fill="#FFA31A"/>
</svg>
