<svg width="41" height="42" viewBox="0 0 41 42" fill="none" xmlns="http://www.w3.org/2000/svg">
<path d="M20.5 16.5556C21.4959 16.5556 22.482 16.3544 23.402 15.9635C24.3221 15.5726 25.158 14.9997 25.8622 14.2775C26.5664 13.5553 27.125 12.6978 27.5061 11.7542C27.8872 10.8106 28.0833 9.79917 28.0833 8.77778C28.0833 7.75639 27.8872 6.74499 27.5061 5.80135C27.125 4.85771 26.5664 4.00029 25.8622 3.27806C25.158 2.55583 24.3221 1.98292 23.402 1.59205C22.482 1.20118 21.4959 1 20.5 1C18.4888 1 16.5599 1.81944 15.1378 3.27806C13.7156 4.73668 12.9167 6.71498 12.9167 8.77778C12.9167 10.8406 13.7156 12.8189 15.1378 14.2775C16.5599 15.7361 18.4888 16.5556 20.5 16.5556ZM1 39.6667V41H40V39.6667C40 34.6889 40 32.2 39.0553 30.2978C38.2244 28.6253 36.8987 27.2655 35.268 26.4133C33.4133 25.4444 30.9867 25.4444 26.1333 25.4444H14.8667C10.0133 25.4444 7.58667 25.4444 5.732 26.4133C4.10133 27.2655 2.77556 28.6253 1.94467 30.2978C1 32.2 1 34.6889 1 39.6667Z" fill="white" stroke="white" stroke-width="2" stroke-linecap="round" stroke-linejoin="round"/>
</svg>
