<svg width="50" height="50" viewBox="0 0 50 50" fill="none" xmlns="http://www.w3.org/2000/svg">
<path d="M28.125 14.0625C28.125 17.7921 26.6434 21.369 24.0062 24.0062C21.369 26.6434 17.7921 28.125 14.0625 28.125C10.3329 28.125 6.75604 26.6434 4.11881 24.0062C1.48158 21.369 0 17.7921 0 14.0625C0 10.3329 1.48158 6.75604 4.11881 4.11881C6.75604 1.48158 10.3329 0 14.0625 0C17.7921 0 21.369 1.48158 24.0062 4.11881C26.6434 6.75604 28.125 10.3329 28.125 14.0625ZM15.625 7.8125C15.625 7.3981 15.4604 7.00067 15.1674 6.70765C14.8743 6.41462 14.4769 6.25 14.0625 6.25C13.6481 6.25 13.2507 6.41462 12.9576 6.70765C12.6646 7.00067 12.5 7.3981 12.5 7.8125V12.5H7.8125C7.3981 12.5 7.00067 12.6646 6.70765 12.9576C6.41462 13.2507 6.25 13.6481 6.25 14.0625C6.25 14.4769 6.41462 14.8743 6.70765 15.1674C7.00067 15.4604 7.3981 15.625 7.8125 15.625H12.5V20.3125C12.5 20.7269 12.6646 21.1243 12.9576 21.4174C13.2507 21.7104 13.6481 21.875 14.0625 21.875C14.4769 21.875 14.8743 21.7104 15.1674 21.4174C15.4604 21.1243 15.625 20.7269 15.625 20.3125V15.625H20.3125C20.7269 15.625 21.1243 15.4604 21.4174 15.1674C21.7104 14.8743 21.875 14.4769 21.875 14.0625C21.875 13.6481 21.7104 13.2507 21.4174 12.9576C21.1243 12.6646 20.7269 12.5 20.3125 12.5H15.625V7.8125ZM14.0625 31.25C17.0045 31.2505 19.8973 30.4959 22.4641 29.0584C25.0309 27.6208 27.1858 25.5485 28.7224 23.0397C30.259 20.531 31.126 17.6698 31.2402 14.7301C31.3545 11.7903 30.7122 8.87047 29.375 6.25H40.625C43.1114 6.25 45.496 7.23772 47.2541 8.99587C49.0123 10.754 50 13.1386 50 15.625V40.625C50 42.6562 49.3563 44.5312 48.2594 46.0687L31.4156 29.4813C30.5387 28.6177 29.3573 28.1336 28.1266 28.1336C26.8958 28.1336 25.7144 28.6177 24.8375 29.4813L7.99375 46.0687C6.85998 44.4799 6.25039 42.5769 6.25 40.625V29.375C8.59375 30.575 11.25 31.25 14.0625 31.25ZM35.9375 21.875C36.3519 21.875 36.7493 21.7104 37.0424 21.4174C37.3354 21.1243 37.5 20.7269 37.5 20.3125C37.5 19.8981 37.3354 19.5007 37.0424 19.2076C36.7493 18.9146 36.3519 18.75 35.9375 18.75C35.5231 18.75 35.1257 18.9146 34.8326 19.2076C34.5396 19.5007 34.375 19.8981 34.375 20.3125C34.375 20.7269 34.5396 21.1243 34.8326 21.4174C35.1257 21.7104 35.5231 21.875 35.9375 21.875ZM35.9375 25C37.1807 25 38.373 24.5061 39.2521 23.6271C40.1311 22.748 40.625 21.5557 40.625 20.3125C40.625 19.0693 40.1311 17.877 39.2521 16.9979C38.373 16.1189 37.1807 15.625 35.9375 15.625C34.6943 15.625 33.502 16.1189 32.6229 16.9979C31.7439 17.877 31.25 19.0693 31.25 20.3125C31.25 21.5557 31.7439 22.748 32.6229 23.6271C33.502 24.5061 34.6943 25 35.9375 25ZM10.2031 48.275C11.7344 49.3625 13.6062 50 15.625 50H40.625C42.6437 50 44.5156 49.3625 46.0469 48.275L29.2219 31.7125C28.9295 31.4243 28.5355 31.2628 28.125 31.2628C27.7145 31.2628 27.3205 31.4243 27.0281 31.7125L10.2031 48.275Z" fill="#FFA31A"/>
</svg>
