<svg width="188" height="170" viewBox="0 0 188 170" fill="none" xmlns="http://www.w3.org/2000/svg">
<path d="M94 0.400391L46.3175 48.2821H77.7192V87.2075H110.281V48.2821H141.682L94 0.400391ZM52.8938 61.1413C51.9395 61.1412 50.9966 61.3486 50.1305 61.7492C49.2644 62.1498 48.4957 62.734 47.8779 63.4612L1.56412 118.011C0.751306 118.969 0.229528 120.139 0.0604179 121.384C-0.108692 122.628 0.0819323 123.895 0.609773 125.035C1.13761 126.174 1.98062 127.139 3.0392 127.815C4.09778 128.491 5.32772 128.85 6.58372 128.85L181.424 128.729C182.679 128.729 183.909 128.369 184.967 127.692C186.024 127.016 186.867 126.05 187.393 124.911C187.92 123.771 188.11 122.504 187.941 121.26C187.771 120.016 187.249 118.846 186.436 117.889L140.229 63.4612C139.611 62.734 138.843 62.1498 137.977 61.7492C137.11 61.3486 136.168 61.1412 135.213 61.1413H121.561C121.557 65.5273 121.546 69.9134 121.546 74.3013H132.166L167.209 115.58L20.8078 115.678L55.9375 74.2994H66.4392C66.4442 69.9128 66.4442 65.5261 66.4392 61.1394L52.8938 61.1413ZM169.031 138.137L151.776 138.15L167.213 156.329L20.8078 156.429L36.2614 138.227L18.988 138.242L1.56412 158.76C0.750723 159.718 0.228447 160.888 0.0590162 162.133C-0.110415 163.378 0.0800822 164.645 0.607992 165.785C1.1359 166.925 1.97916 167.89 3.03809 168.566C4.09703 169.243 5.32737 169.601 6.58372 169.6L181.424 169.48C182.679 169.48 183.909 169.12 184.967 168.443C186.024 167.766 186.867 166.801 187.393 165.662C187.92 164.522 188.11 163.255 187.941 162.011C187.771 160.767 187.249 159.597 186.436 158.64L169.031 138.137Z" fill="#ED9E1D"/>
</svg>
